<svg width="30" height="30" viewBox="0 0 30 30" fill="none" xmlns="http://www.w3.org/2000/svg">
<path d="M23.1875 7.34743C22.943 6.62614 22.2584 6.11267 21.4515 6.11267H8.00361C7.19674 6.11267 6.52434 6.62614 6.26761 7.34743L3.72473 14.6704V24.4507C3.72473 25.1231 4.27487 25.6733 4.94727 25.6733H6.1698C6.8422 25.6733 7.39234 25.1231 7.39234 24.4507V23.2282H22.0628V24.4507C22.0628 25.1231 22.6129 25.6733 23.2853 25.6733H24.5079C25.1802 25.6733 25.7304 25.1231 25.7304 24.4507V14.6704L23.1875 7.34743ZM9.22615 19.5606C8.21144 19.5606 7.39234 18.7415 7.39234 17.7268C7.39234 16.7121 8.21144 15.893 9.22615 15.893C10.2409 15.893 11.06 16.7121 11.06 17.7268C11.06 18.7415 10.2409 19.5606 9.22615 19.5606ZM20.229 19.5606C19.2143 19.5606 18.3952 18.7415 18.3952 17.7268C18.3952 16.7121 19.2143 15.893 20.229 15.893C21.2437 15.893 22.0628 16.7121 22.0628 17.7268C22.0628 18.7415 21.2437 19.5606 20.229 19.5606ZM7.16006 12.2254L8.4315 8.55774H21.0114L22.2828 12.2254H7.16006Z" fill="#F7F7F7"/>
</svg>
