<svg width="30" height="30" viewBox="0 0 30 30" fill="none" xmlns="http://www.w3.org/2000/svg">
<path d="M8.40098 24.0542C7.79509 24.0542 7.2766 23.8387 6.8455 23.4076C6.41367 22.9758 6.19775 22.4569 6.19775 21.851V11.9365C6.19775 11.5877 6.27597 11.2572 6.4324 10.9451C6.58809 10.633 6.80364 10.3759 7.07904 10.174L13.6887 5.21671C13.8907 5.06982 14.1018 4.95966 14.3221 4.88622C14.5425 4.81278 14.772 4.77606 15.0106 4.77606C15.2493 4.77606 15.4788 4.81278 15.6991 4.88622C15.9195 4.95966 16.1306 5.06982 16.3326 5.21671L22.9422 10.174C23.2176 10.3759 23.4336 10.633 23.59 10.9451C23.7457 11.2572 23.8235 11.5877 23.8235 11.9365V21.851C23.8235 22.4569 23.608 22.9758 23.1769 23.4076C22.7451 23.8387 22.2262 24.0542 21.6203 24.0542H17.2139V16.343H12.8074V24.0542H8.40098Z" fill="#F7F7F7"/>
</svg>
