<svg width="30" height="30" viewBox="0 0 30 30" fill="none" xmlns="http://www.w3.org/2000/svg">
<path d="M21.353 12.225L16.4508 7.33496H11.0596V9.77996H15.4483L17.8933 12.225H8.00332C4.94708 12.225 2.50208 14.67 2.50208 17.7262C2.50208 20.7825 4.94708 23.2275 8.00332 23.2275C10.7173 23.2275 12.9667 21.247 13.4068 18.6675L15.9985 17.115C15.9496 17.3228 15.9496 17.5184 15.9496 17.7262C15.9496 20.7825 18.3946 23.2275 21.4508 23.2275C24.5071 23.2275 26.9521 20.7825 26.9521 17.7262C26.9521 14.67 24.5071 12.225 21.4508 12.225M10.864 18.6553C10.4483 19.89 9.32362 20.7825 7.96665 20.7825C7.15608 20.7825 6.37871 20.4605 5.80555 19.8873C5.2324 19.3141 4.9104 18.5368 4.9104 17.7262C4.9104 16.9156 5.2324 16.1383 5.80555 15.5651C6.37871 14.992 7.15608 14.67 7.96665 14.67C9.33585 14.67 10.4483 15.5746 10.864 16.8093H7.39208V18.6431L10.864 18.6553ZM21.4141 20.7825C20.6036 20.7825 19.8262 20.4605 19.2531 19.8873C18.6799 19.3141 18.3579 18.5368 18.3579 17.7262C18.3579 16.9156 18.6799 16.1383 19.2531 15.5651C19.8262 14.992 20.6036 14.67 21.4141 14.67C22.2247 14.67 23.0021 14.992 23.5752 15.5651C24.1484 16.1383 24.4704 16.9156 24.4704 17.7262C24.4704 18.5368 24.1484 19.3141 23.5752 19.8873C23.0021 20.4605 22.2247 20.7825 21.4141 20.7825Z" fill="#F7F7F7"/>
</svg>
