<svg width="30" height="30" viewBox="0 0 30 30" fill="none" xmlns="http://www.w3.org/2000/svg">
<path d="M8.61488 11.0029H2.5022V8.5578H8.61488V11.0029ZM8.61488 14.6705H2.5022V17.1156H8.61488V14.6705ZM25.2292 23.2282L20.5468 18.5459C19.5688 19.1816 18.4196 19.5606 17.1726 19.5606C13.7984 19.5606 11.06 16.8222 11.06 13.4479C11.06 10.0737 13.7984 7.33527 17.1726 7.33527C20.5468 7.33527 23.2853 10.0737 23.2853 13.4479C23.2853 14.6949 22.9063 15.8441 22.2706 16.8099L26.9529 21.5045L25.2292 23.2282ZM20.8402 13.4479C20.8402 11.4308 19.1898 9.78034 17.1726 9.78034C15.1555 9.78034 13.505 11.4308 13.505 13.4479C13.505 15.4651 15.1555 17.1156 17.1726 17.1156C19.1898 17.1156 20.8402 15.4651 20.8402 13.4479ZM2.5022 23.2282H14.7276V20.7832H2.5022V23.2282Z" fill="#F7F7F7"/>
</svg>
